<svg width="108" height="17" fill="none" xmlns="http://www.w3.org/2000/svg"><path d="M13.31 9.171l-3.752 6.427-3.752-6.427h7.505zm1.006-.574h-9.52l4.762 8.138 4.758-8.138zm5.519-7.419l3.752 6.427h-7.505l3.753-6.427zm0-1.149l-4.762 8.138h9.523L19.835.03z" fill="#263238"/><path d="M.234.03l3.993 7.197L8.59.21.234.03zm9.324.63l4.188 7.158H5.362L9.558.66zm5.267 8.72l4.192 7.355h-8.584l4.261-7.355h.13zm.907-.446l4.103 7.243 4.16-7.243h-8.263z" fill="#4CAF4F"/><path d="M42.02 1.191v14.175h-2.588l-6.166-8.922h-.104v8.922h-2.997V1.19h2.63l6.118 8.914h.125V1.191h2.983zm7.266 14.382c-1.093 0-2.034-.221-2.823-.664a4.55 4.55 0 01-1.814-1.897c-.424-.821-.636-1.792-.636-2.913 0-1.094.212-2.054.636-2.88a4.707 4.707 0 011.793-1.93c.775-.462 1.684-.693 2.727-.693.701 0 1.354.113 1.958.34.61.22 1.14.555 1.592 1.003.457.448.812 1.01 1.066 1.689.254.673.38 1.462.38 2.367v.81H45.19V8.977h6.201c0-.424-.092-.8-.276-1.128a1.983 1.983 0 00-.769-.768 2.191 2.191 0 00-1.128-.284c-.447 0-.844.104-1.19.312a2.184 2.184 0 00-.803.823 2.326 2.326 0 00-.298 1.142v1.737c0 .526.097.98.291 1.364.198.383.477.678.837.886.36.207.787.311 1.28.311.328 0 .628-.046.9-.138.273-.092.506-.23.7-.415.193-.185.341-.411.443-.679l2.726.18a3.724 3.724 0 01-.85 1.717c-.425.484-.974.862-1.648 1.135-.67.267-1.442.401-2.319.401zm9.078-10.838l1.951 3.716 2-3.716h3.025l-3.08 5.315 3.163 5.316h-3.01l-2.098-3.676-2.062 3.676h-3.046l3.157-5.316-3.046-5.315h3.046zm13.15 10.838c-1.09 0-2.026-.23-2.81-.692a4.678 4.678 0 01-1.8-1.938c-.415-.826-.623-1.776-.623-2.851 0-1.09.21-2.044.63-2.866a4.679 4.679 0 011.806-1.93c.78-.467 1.708-.7 2.783-.7.927 0 1.74.169 2.436.505.697.337 1.248.81 1.654 1.42.406.608.63 1.324.672 2.145h-2.783c-.078-.53-.286-.958-.623-1.28-.332-.328-.768-.492-1.308-.492-.457 0-.856.125-1.197.374-.337.244-.6.602-.79 1.073-.188.47-.283 1.04-.283 1.71 0 .677.092 1.254.277 1.73.19.475.454.837.796 1.086.341.25.74.374 1.197.374.337 0 .64-.07.907-.208.272-.138.496-.339.671-.602a2.3 2.3 0 00.353-.962h2.783c-.047.812-.268 1.527-.665 2.146a4.014 4.014 0 01-1.626 1.44c-.693.345-1.511.518-2.457.518zm11.48 0c-1.093 0-2.035-.221-2.824-.664a4.55 4.55 0 01-1.813-1.897c-.425-.821-.637-1.792-.637-2.913 0-1.094.212-2.054.637-2.88a4.707 4.707 0 011.793-1.93c.775-.462 1.684-.693 2.726-.693.702 0 1.355.113 1.96.34.608.22 1.139.555 1.591 1.003.457.448.812 1.01 1.066 1.689.254.673.38 1.462.38 2.367v.81h-8.976V8.977h6.201c0-.424-.092-.8-.277-1.128a1.983 1.983 0 00-.768-.768 2.191 2.191 0 00-1.128-.284c-.448 0-.844.104-1.19.312a2.184 2.184 0 00-.803.823 2.326 2.326 0 00-.298 1.142v1.737c0 .526.097.98.29 1.364.2.383.478.678.838.886.36.207.787.311 1.28.311.328 0 .628-.046.9-.138.273-.092.506-.23.7-.415.193-.185.34-.411.442-.679l2.727.18a3.724 3.724 0 01-.851 1.717c-.425.484-.974.862-1.647 1.135-.67.267-1.442.401-2.319.401zm9.752-6.353v6.146h-2.948V4.735h2.81V6.61h.124a2.966 2.966 0 011.184-1.467c.553-.364 1.225-.547 2.014-.547.738 0 1.382.162 1.93.485.55.323.977.784 1.281 1.384.305.595.457 1.306.457 2.132v6.769H96.65V9.123c.004-.65-.162-1.158-.499-1.523-.337-.37-.8-.554-1.391-.554-.397 0-.747.086-1.052.256-.3.171-.535.42-.706.748-.166.323-.251.713-.256 1.17zm14.83-4.485v2.214h-6.402V4.735h6.402zm-4.948-2.547h2.948v9.91c0 .273.042.485.125.637a.685.685 0 00.346.312c.152.06.327.09.526.09.138 0 .277-.012.415-.035l.318-.062.464 2.194c-.148.046-.355.1-.623.16a4.993 4.993 0 01-.976.117c-.71.028-1.333-.067-1.868-.284a2.605 2.605 0 01-1.239-1.01c-.296-.457-.441-1.034-.436-1.73v-10.3z" fill="#263238"/></svg>